<svg xmlns="http://www.w3.org/2000/svg" width="225" height="50" fill="none"><path fill="#fff" d="M7.587 16.248h5.632v-5.632L3.564 6.594zM28.505 31.534l-2.414 4.828 7.241 7.224 2.414-4.81 4.81-2.414-7.224-7.241zM36.534 16.248h-5.632v-5.632l9.655-4.022zM15.616 31.534l2.414 4.828-7.241 7.224-2.414-4.81-4.811-2.414 7.225-7.241z"/><g fill="#cce7ff"><path d="M13.219 10.616 3.564 6.594l9.655 9.654zM28.505 31.534l7.24 7.241 4.812-2.413-7.225-7.241zM36.534 16.248h-5.632l9.655-9.654zM8.375 38.775l7.241-7.24 2.414 4.827-7.241 7.224z"/></g><path stroke="#1078ff" stroke-linecap="round" stroke-linejoin="round" d="M7.587 16.248h5.632v-5.632L3.564 6.594z" stroke-width="1.60908"/><path stroke="#1078ff" stroke-linecap="round" stroke-linejoin="round" style="stroke-width:1.60908" d="m13.219 16.248 22.527 22.527M28.214 38.479l1.272-2.549M30.49 40.751l1.272-2.545"/><path stroke="#1078ff" stroke-linecap="round" stroke-linejoin="round" d="m28.505 31.534-2.414 4.828 7.241 7.224 2.414-4.81 4.81-2.414-7.224-7.241z" stroke-width="1.60908"/><path stroke="#1078ff" stroke-linecap="round" stroke-linejoin="round" style="stroke-width:1.60908" d="m35.45 31.243-2.549 1.273M37.722 33.52l-2.546 1.271"/><path stroke="#1078ff" stroke-linecap="round" stroke-linejoin="round" d="M36.534 16.248h-5.632v-5.632l9.655-4.022z" stroke-width="1.60908"/><path stroke="#1078ff" stroke-linecap="round" stroke-linejoin="round" style="stroke-width:1.60908" d="M30.902 16.248 8.375 38.775M15.907 38.479l-1.272-2.549M13.63 40.751l-1.271-2.545"/><path stroke="#1078ff" stroke-linecap="round" stroke-linejoin="round" d="m15.616 31.534 2.414 4.828-7.241 7.224-2.414-4.81-4.811-2.414 7.225-7.241z" stroke-width="1.60908"/><path stroke="#1078ff" stroke-linecap="round" stroke-linejoin="round" style="stroke-width:1.60908" d="m8.671 31.243 2.549 1.273M6.399 33.52l2.546 1.271"/><g><text xml:space="preserve" style="font-style:normal;font-weight:400;font-size:40px;line-height:1.25;font-family:sans-serif;fill:#000;fill-opacity:1;stroke:none" x="58.714" y="37.58"><tspan x="58.714" y="37.58" style="font-style:normal;font-variant:normal;font-weight:400;font-stretch:normal;font-family:'Libre Baskerville';-inkscape-font-specification:'Libre Baskerville'" dx="0" dy="0" rotate="0 0 0 0 0 0 0 0">Acolyte</tspan></text></g></svg>